<svg width="16" height="16" viewBox="0 0 16 16" fill="none" xmlns="http://www.w3.org/2000/svg">
<path d="M7.63771 10.6203L2.32833 5.04682C2.23951 4.9538 2.18994 4.83012 2.18994 4.7015C2.18994 4.57288 2.23951 4.44921 2.32833 4.35619L2.33458 4.3515C2.37751 4.30616 2.42924 4.27004 2.48659 4.24536C2.54395 4.22068 2.60574 4.20795 2.66818 4.20795C2.73062 4.20795 2.79241 4.22068 2.84976 4.24536C2.90712 4.27004 2.95884 4.30616 3.00177 4.3515L8.00177 9.59838L12.9986 4.3515C13.0416 4.30616 13.0933 4.27004 13.1507 4.24536C13.208 4.22068 13.2698 4.20795 13.3322 4.20795C13.3947 4.20795 13.4565 4.22068 13.5138 4.24536C13.5712 4.27004 13.6229 4.30616 13.6658 4.3515L13.6721 4.35619C13.7609 4.44921 13.8105 4.57288 13.8105 4.7015C13.8105 4.83012 13.7609 4.9538 13.6721 5.04682L8.36271 10.6203C8.316 10.6694 8.25978 10.7086 8.19746 10.7353C8.13514 10.7621 8.06803 10.7759 8.00021 10.7759C7.93239 10.7759 7.86528 10.7621 7.80296 10.7353C7.74064 10.7086 7.68442 10.6694 7.63771 10.6203Z" fill="#FBD050"/>
</svg>
