<svg width="149" height="24" viewBox="0 0 149 24" fill="none" xmlns="http://www.w3.org/2000/svg">
<path d="M-5.65052e-05 23.68V0.32H13.7279V3.392H3.39194V10.016H12.6079V13.056H3.39194V20.608H13.7279V23.68H-5.65052e-05ZM17.2674 23.68L23.8594 11.776L17.6514 0.32H21.5554L24.8194 6.688C25.0114 7.09333 25.2034 7.49867 25.3954 7.904C25.5874 8.30933 25.7368 8.61867 25.8434 8.832C25.9288 8.61867 26.0674 8.30933 26.2594 7.904C26.4514 7.49867 26.6434 7.09333 26.8354 6.688L30.1634 0.32H33.9074L27.6994 11.648L34.2914 23.68H30.3874L26.7714 16.768C26.5581 16.3627 26.3554 15.9573 26.1634 15.552C25.9714 15.1253 25.8221 14.7947 25.7154 14.56C25.6301 14.7947 25.4914 15.1147 25.2994 15.52C25.1074 15.9253 24.9154 16.3307 24.7234 16.736L21.0434 23.68H17.2674ZM38.0549 23.68V0.32H45.7029C47.2176 0.32 48.5296 0.608 49.6389 1.184C50.7696 1.76 51.6336 2.58133 52.2309 3.648C52.8496 4.69333 53.1589 5.93067 53.1589 7.36C53.1589 8.768 52.8496 10.0053 52.2309 11.072C51.6123 12.1387 50.7483 12.96 49.6389 13.536C48.5296 14.112 47.2176 14.4 45.7029 14.4H41.5109V23.68H38.0549ZM41.5109 11.296H45.7029C46.8976 11.296 47.8469 10.944 48.5509 10.24C49.2763 9.51467 49.6389 8.55467 49.6389 7.36C49.6389 6.144 49.2763 5.184 48.5509 4.48C47.8469 3.776 46.8976 3.424 45.7029 3.424H41.5109V11.296ZM64.1544 24C62.7038 24 61.4451 23.7333 60.3784 23.2C59.3331 22.6453 58.5224 21.856 57.9464 20.832C57.3918 19.7867 57.1144 18.5707 57.1144 17.184V6.816C57.1144 5.408 57.3918 4.192 57.9464 3.168C58.5224 2.144 59.3331 1.36533 60.3784 0.831999C61.4451 0.277333 62.7038 0 64.1544 0C65.6051 0 66.8531 0.277333 67.8984 0.831999C68.9651 1.36533 69.7758 2.144 70.3304 3.168C70.9064 4.192 71.1944 5.39733 71.1944 6.784V17.184C71.1944 18.5707 70.9064 19.7867 70.3304 20.832C69.7758 21.856 68.9651 22.6453 67.8984 23.2C66.8531 23.7333 65.6051 24 64.1544 24ZM64.1544 20.928C65.3278 20.928 66.2131 20.608 66.8104 19.968C67.4291 19.3067 67.7384 18.3787 67.7384 17.184V6.816C67.7384 5.6 67.4291 4.672 66.8104 4.032C66.2131 3.392 65.3278 3.072 64.1544 3.072C63.0024 3.072 62.1171 3.392 61.4984 4.032C60.8798 4.672 60.5704 5.6 60.5704 6.816V17.184C60.5704 18.3787 60.8798 19.3067 61.4984 19.968C62.1171 20.608 63.0024 20.928 64.1544 20.928ZM81.0379 23.68L75.1179 0.32H78.6699L82.4139 15.872C82.6486 16.7893 82.8513 17.7067 83.0219 18.624C83.2139 19.52 83.3526 20.224 83.4379 20.736C83.5233 20.224 83.6406 19.52 83.7899 18.624C83.9606 17.7067 84.1633 16.7787 84.3979 15.84L88.1099 0.32H91.5659L85.6139 23.68H81.0379ZM95.9374 23.68V0.32H109.665V3.392H99.3294V10.016H108.545V13.056H99.3294V20.608H109.665V23.68H95.9374ZM114.709 23.68V0.32H119.061L125.877 19.744C125.834 19.1253 125.781 18.3893 125.717 17.536C125.653 16.6827 125.6 15.7973 125.557 14.88C125.536 13.9627 125.525 13.1307 125.525 12.384V0.32H128.725V23.68H124.373L117.589 4.256C117.632 4.81067 117.674 5.504 117.717 6.336C117.781 7.168 117.824 8.032 117.845 8.928C117.888 9.824 117.909 10.656 117.909 11.424V23.68H114.709ZM139.176 23.68V3.488H132.936V0.288H148.872V3.488H142.632V23.68H139.176Z" fill="url(#paint0_linear_6_371)"/>
<defs>
<linearGradient id="paint0_linear_6_371" x1="-3.00806" y1="11.68" x2="150.992" y2="11.68" gradientUnits="userSpaceOnUse">
<stop stop-color="#3C264C"/>
<stop offset="0.480769" stop-color="#C47F9C"/>
<stop offset="1" stop-color="#F5C266"/>
</linearGradient>
</defs>
</svg>
