<svg width="77" height="77" viewBox="0 0 77 77" fill="none" xmlns="http://www.w3.org/2000/svg">
<path d="M59.3672 23.4465C60.1029 23.4465 60.7168 23.1973 61.2087 22.699C61.7007 22.1985 61.9467 21.5803 61.9467 20.8445C61.9467 20.1066 61.6964 19.4917 61.1959 18.9997C60.6975 18.5078 60.0805 18.2618 59.3447 18.2618C58.6068 18.2618 57.9919 18.5121 57.4999 19.0126C57.008 19.5109 56.762 20.128 56.762 20.8638C56.762 21.6017 57.0112 22.2166 57.5095 22.7086C58.01 23.2005 58.6314 23.4465 59.3672 23.4465ZM46.5306 23.4465C47.2685 23.4465 47.8835 23.1973 48.3754 22.699C48.8674 22.1985 49.1133 21.5803 49.1133 20.8445C49.1133 20.1066 48.8631 19.4917 48.3626 18.9997C47.8642 18.5078 47.2471 18.2618 46.5114 18.2618C45.7735 18.2618 45.1585 18.5121 44.6666 19.0126C44.1746 19.5109 43.9287 20.128 43.9287 20.8638C43.9287 21.6017 44.1778 22.2166 44.6762 22.7086C45.1767 23.2005 45.7948 23.4465 46.5306 23.4465ZM49.2898 30.1359C48.1177 30.5658 47.1701 31.2909 46.4472 32.3111C46.1392 32.7646 46.1446 33.218 46.4632 33.6715C46.7819 34.1249 47.2621 34.3527 47.9038 34.3548H57.9715C58.5726 34.3548 59.0324 34.127 59.3511 33.6715C59.6698 33.2159 59.6752 32.7624 59.3672 32.3111C58.6421 31.2909 57.7042 30.5658 56.5535 30.1359C55.4006 29.7081 54.1943 29.4942 52.9345 29.4942C51.6725 29.4942 50.4576 29.7081 49.2898 30.1359ZM12.7084 62.6972C9.58345 59.5766 8.021 55.7886 8.021 51.3333V37.268C8.021 35.8414 8.52898 34.6211 9.54495 33.6073C10.5609 32.5935 11.7801 32.0855 13.2025 32.0833H34.9229C36.3474 32.0833 37.5665 32.5913 38.5804 33.6073C39.5942 34.6233 40.1022 35.8424 40.1043 37.2648V51.3333C40.1043 55.7886 38.5461 59.5766 35.4298 62.6972C32.3134 65.8179 28.5297 67.3771 24.0787 67.375C19.6277 67.3729 15.8354 65.8136 12.7084 62.6972ZM33.1262 60.3969C35.6394 57.8837 36.896 54.8625 36.896 51.3333V37.268C36.896 36.6905 36.711 36.2167 36.341 35.8467C35.9709 35.4767 35.4982 35.2917 34.9229 35.2917H13.2025C12.6271 35.2917 12.1544 35.4767 11.7844 35.8467C11.4143 36.2167 11.2293 36.6905 11.2293 37.268V51.3333C11.2293 54.8625 12.4859 57.8837 14.9991 60.3969C17.5123 62.9101 20.5335 64.1667 24.0627 64.1667C27.5918 64.1667 30.613 62.9101 33.1262 60.3969ZM68.9793 14.8065V28.875C68.9793 33.4651 67.3538 37.2969 64.1027 40.3705C60.8515 43.444 56.9588 44.9798 52.4243 44.9776C51.4875 44.9776 50.5646 44.8942 49.6555 44.7274C48.7465 44.5563 47.8642 44.2761 47.0087 43.8868C46.5638 43.7007 46.2782 43.382 46.152 42.9307C46.0237 42.4773 46.0729 42.0281 46.2996 41.5832C46.5263 41.1383 46.8557 40.8603 47.2878 40.749C47.7198 40.6378 48.1369 40.6742 48.539 40.8581C49.2513 41.1832 49.9871 41.4057 50.7464 41.5255C51.5057 41.6452 52.2628 41.7062 53.0179 41.7083C56.547 41.7083 59.5554 40.4517 62.0429 37.9385C64.5304 35.4253 65.7731 32.4042 65.771 28.875V14.8097C65.771 14.2322 65.586 13.7584 65.216 13.3884C64.8459 13.0183 64.3732 12.8333 63.7979 12.8333H42.0775C41.5021 12.8333 41.0294 13.0183 40.6594 13.3884C40.2893 13.7584 40.1043 14.2322 40.1043 14.8097V25.6667C40.1043 26.1222 39.9503 26.503 39.6423 26.8088C39.3343 27.1147 38.9525 27.2687 38.497 27.2708C38.0414 27.273 37.6606 27.119 37.3548 26.8088C37.0489 26.4987 36.896 26.118 36.896 25.6667V14.8097C36.896 13.383 37.404 12.1628 38.42 11.149C39.4359 10.1351 40.6551 9.62714 42.0775 9.625H63.7979C65.2224 9.625 66.4415 10.133 67.4554 11.149C68.4692 12.1649 68.9772 13.3841 68.9793 14.8065ZM17.6556 45.9048C18.3935 45.9048 19.0085 45.6546 19.5004 45.1541C19.9924 44.6557 20.2383 44.0387 20.2383 43.3029C20.2383 42.565 19.9891 41.95 19.4908 41.4581C18.9903 40.9661 18.3721 40.7202 17.6364 40.7202C16.8985 40.7202 16.2835 40.9693 15.7916 41.4677C15.2996 41.9682 15.0537 42.5863 15.0537 43.3221C15.0537 44.06 15.3039 44.675 15.8044 45.1669C16.3028 45.6589 16.9198 45.9048 17.6556 45.9048ZM32.3337 45.1541C32.8257 44.6557 33.0717 44.0387 33.0717 43.3029C33.0717 42.565 32.8225 41.95 32.3241 41.4581C31.8236 40.9661 31.2055 40.7202 30.4697 40.7202C29.7318 40.7202 29.1169 40.9693 28.6249 41.4677C28.133 41.9682 27.887 42.5863 27.887 43.3221C27.887 44.06 28.1372 44.675 28.6377 45.1669C29.1361 45.6589 29.7532 45.9048 30.489 45.9048C31.2269 45.9048 31.8418 45.6546 32.3337 45.1541ZM27.6656 56.1779C28.8185 55.7544 29.7692 55.0454 30.5178 54.0508C30.8258 53.5867 30.8301 53.1204 30.5307 52.652C30.2291 52.1857 29.7639 51.9525 29.135 51.9525H18.9903C18.3615 51.9525 17.8973 52.1857 17.5979 52.652C17.2984 53.1204 17.3027 53.5867 17.6107 54.0508C18.3593 55.0454 19.309 55.7544 20.4597 56.1779C21.6126 56.6036 22.8136 56.8164 24.0627 56.8164C25.3118 56.8164 26.5128 56.6014 27.6656 56.1779Z" fill="#FBD050"/>
</svg>
