<svg width="77" height="77" viewBox="0 0 77 77" fill="none" xmlns="http://www.w3.org/2000/svg">
<path d="M28.875 21.6562C28.875 24.209 29.8891 26.6571 31.6941 28.4622C33.4991 30.2672 35.9473 31.2812 38.5 31.2812C41.0527 31.2812 43.5009 30.2672 45.3059 28.4622C47.1109 26.6571 48.125 24.209 48.125 21.6562C48.125 19.1035 47.1109 16.6554 45.3059 14.8503C43.5009 13.0453 41.0527 12.0313 38.5 12.0312C35.9473 12.0313 33.4991 13.0453 31.6941 14.8503C29.8891 16.6554 28.875 19.1035 28.875 21.6562ZM24.0625 50.5312C24.0625 46.7022 25.5836 43.03 28.2911 40.3224C30.9987 37.6148 34.6709 36.0937 38.5 36.0937C42.3291 36.0937 46.0013 37.6148 48.7089 40.3224C51.4164 43.03 52.9375 46.7022 52.9375 50.5312H24.0625Z" stroke="#FBD050" stroke-width="2" stroke-linecap="round" stroke-linejoin="round"/>
<path d="M19.2501 28.875V21.6562C19.2501 16.5508 21.2782 11.6545 24.8883 8.04444C28.4984 4.43437 33.3947 2.40625 38.5001 2.40625C43.6055 2.40625 48.5018 4.43437 52.1119 8.04444C55.722 11.6545 57.7501 16.5508 57.7501 21.6562V26.4687M71.9855 68.3985C72.201 69.1171 72.2456 69.8762 72.1156 70.6152C71.9856 71.3541 71.6846 72.0524 71.2367 72.6543C70.7887 73.2562 70.2063 73.7451 69.5358 74.0818C68.8653 74.4186 68.1254 74.5939 67.3751 74.5937H9.62508C8.87479 74.5939 8.13486 74.4186 7.46437 74.0818C6.79389 73.7451 6.21143 73.2562 5.7635 72.6543C5.31557 72.0524 5.01458 71.3541 4.88457 70.6152C4.75456 69.8762 4.79912 69.1171 5.01471 68.3985L9.34596 53.961C9.64338 52.9695 10.2526 52.1003 11.0831 51.4825C11.9136 50.8647 12.9212 50.5311 13.9563 50.5312H63.0438C64.079 50.5311 65.0866 50.8647 65.9171 51.4825C66.7476 52.1003 67.3568 52.9695 67.6542 53.961L71.9855 68.3985Z" stroke="#FBD050" stroke-width="2" stroke-linecap="round" stroke-linejoin="round"/>
<path d="M16.8437 62.5625C16.8437 63.8394 17.6041 65.065 18.958 65.9633C20.312 66.8617 22.1471 67.375 24.0625 67.375C25.9779 67.375 27.813 66.8681 29.167 65.9633C30.5209 65.065 31.2812 63.8394 31.2812 62.5625C31.2812 61.2856 30.5209 60.06 29.167 59.1617C27.813 58.2633 25.9779 57.75 24.0625 57.75C22.1471 57.75 20.312 58.2569 18.958 59.1617C17.6041 60.06 16.8437 61.2856 16.8437 62.5625ZM45.7187 62.5625C45.7187 63.1945 45.9048 63.8202 46.2674 64.4041C46.6299 64.988 47.1657 65.5174 47.833 65.9665C48.5036 66.4125 49.2992 66.7686 50.1751 67.0092C51.051 67.2499 51.991 67.375 52.9375 67.375C53.884 67.375 54.824 67.2499 55.6999 67.0092C56.5757 66.7686 57.3714 66.4125 58.042 65.9665C58.7125 65.5174 59.2451 64.988 59.6076 64.4041C59.9702 63.8202 60.1562 63.1945 60.1562 62.5625C60.1562 61.9305 59.9702 61.3048 59.6076 60.7209C59.2055 60.0925 58.6712 59.5593 58.042 59.1585C57.3222 58.6876 56.5314 58.3355 55.6999 58.1158C54.824 57.8751 53.8872 57.75 52.9375 57.75C51.9878 57.75 51.051 57.8751 50.1751 58.1158C49.3436 58.3355 48.5528 58.6876 47.833 59.1585C47.2038 59.5593 46.6695 60.0925 46.2674 60.7209C45.9177 61.2722 45.7278 61.9097 45.7187 62.5625ZM67.375 24.0625C67.375 25.977 66.6145 27.8131 65.2607 29.1669C63.9069 30.5207 62.0708 31.2812 60.1562 31.2812C59.5181 31.2812 58.906 31.0277 58.4548 30.5765C58.0035 30.1252 57.75 29.5132 57.75 28.875V16.8438H60.1562C62.0708 16.8438 63.9069 17.6043 65.2607 18.9581C66.6145 20.3119 67.375 22.148 67.375 24.0625ZM9.625 24.0625C9.625 25.977 10.3855 27.8131 11.7393 29.1669C13.0931 30.5207 14.9292 31.2812 16.8437 31.2812C17.4819 31.2812 18.094 31.0277 18.5452 30.5765C18.9965 30.1252 19.25 29.5132 19.25 28.875V16.8438H16.8437C14.9292 16.8438 13.0931 17.6043 11.7393 18.9581C10.3855 20.3119 9.625 22.148 9.625 24.0625Z" stroke="#FBD050" stroke-width="2" stroke-linecap="round" stroke-linejoin="round"/>
</svg>
