<svg width="50" height="50" viewBox="0 0 50 50" fill="none" xmlns="http://www.w3.org/2000/svg">
<path d="M4.1665 20.8333C4.1665 20.8333 10.4165 14.5833 10.4165 4.16663" stroke="#FBD050" stroke-width="2.66667" stroke-linecap="round" stroke-linejoin="round"/>
<path d="M45.8335 20.8333C45.8335 20.8333 39.5835 14.5833 39.5835 4.16663" stroke="#FBD050" stroke-width="2.66667" stroke-linecap="round" stroke-linejoin="round"/>
<path d="M20.8332 4.16663C20.8332 13.3333 13.3332 20.8333 4.1665 20.8333" stroke="#FBD050" stroke-width="2.66667" stroke-linecap="round" stroke-linejoin="round"/>
<path d="M29.1665 4.16663C29.1665 13.3333 36.6665 20.8333 45.8332 20.8333" stroke="#FBD050" stroke-width="2.66667" stroke-linecap="round" stroke-linejoin="round"/>
<path d="M4.1665 20.8334C4.1665 20.8334 8.33317 25 8.33317 31.25" stroke="#FBD050" stroke-width="2.66667" stroke-linecap="round" stroke-linejoin="round"/>
<path d="M45.8332 20.8334C45.8332 20.8334 41.6665 25 41.6665 31.25" stroke="#FBD050" stroke-width="2.66667" stroke-linecap="round" stroke-linejoin="round"/>
<path d="M16.6665 31.25H33.3332" stroke="#FBD050" stroke-width="2.66667" stroke-linecap="round" stroke-linejoin="round"/>
<path d="M4.1665 45.8334V43.75C4.1665 42.645 4.60549 41.5852 5.38689 40.8038C6.16829 40.0224 7.2281 39.5834 8.33317 39.5834H16.6665C17.7716 39.5834 18.8314 40.0224 19.6128 40.8038C20.3942 41.5852 20.8332 42.645 20.8332 43.75V45.8334" stroke="#FBD050" stroke-width="2.66667" stroke-linecap="round" stroke-linejoin="round"/>
<path d="M29.1665 45.8334V43.75C29.1665 42.645 29.6055 41.5852 30.3869 40.8038C31.1683 40.0224 32.2281 39.5834 33.3332 39.5834H41.6665C42.7716 39.5834 43.8314 40.0224 44.6128 40.8038C45.3942 41.5852 45.8332 42.645 45.8332 43.75V45.8334" stroke="#FBD050" stroke-width="2.66667" stroke-linecap="round" stroke-linejoin="round"/>
</svg>
